<svg version="1.1" id="Layer_1" xmlns="http://www.w3.org/2000/svg" xmlns:xlink="http://www.w3.org/1999/xlink" x="0px" y="0px"
	 width="100%" viewBox="0 0 352 352" enable-background="new 0 0 352 352" xml:space="preserve">
<path fill="#000000" opacity="1.000000" stroke="none" 
	d="
M214.741882,187.201172 
	C247.819168,202.589844 266.657745,228.327652 272.339569,263.752441 
	C273.633942,271.822662 270.393127,275.559875 262.392120,276.905365 
	C260.276031,277.261230 258.082489,277.248566 255.924454,277.249298 
	C205.976776,277.266388 156.029114,277.262268 106.081444,277.260010 
	C104.749611,277.259949 103.415283,277.285461 102.086357,277.216827 
	C92.552933,276.724670 88.556725,272.689972 89.728592,263.195831 
	C92.185661,243.289352 100.809227,226.062820 114.006973,211.084686 
	C122.829567,201.071930 133.448349,193.478897 145.550171,187.867798 
	C148.652237,186.429535 151.282211,186.305984 154.486740,187.870316 
	C172.423538,196.626404 190.429276,196.324219 208.294556,187.553040 
	C210.363129,186.537476 212.248795,185.836487 214.741882,187.201172 
z"/>
<path fill="#000000" opacity="1.000000" stroke="none" 
	d="
M133.884583,145.697540 
	C126.282005,110.673798 151.885712,84.315331 181.875977,84.767616 
	C206.465073,85.138451 227.726944,105.360992 229.267670,129.575012 
	C230.865524,154.687042 213.527481,177.117920 189.354874,181.138474 
	C163.682465,185.408447 140.429184,169.757339 133.884583,145.697540 
z"/>
</svg>